<svg width="155" height="155" viewBox="0 0 155 155" fill="none" xmlns="http://www.w3.org/2000/svg">
<path d="M77 142C112.346 142 141 113.346 141 78C141 42.6538 112.346 14 77 14C41.6538 14 13 42.6538 13 78C13 113.346 41.6538 142 77 142Z" fill="url(#paint0_linear_862_10995)"/>
<path d="M77.0001 128.11C104.675 128.11 127.11 105.675 127.11 78.0001C127.11 50.3251 104.675 27.8901 77.0001 27.8901C49.3251 27.8901 26.8901 50.3251 26.8901 78.0001C26.8901 105.675 49.3251 128.11 77.0001 128.11Z" fill="url(#paint1_linear_862_10995)"/>
<defs>
<linearGradient id="paint0_linear_862_10995" x1="77" y1="142" x2="77" y2="14" gradientUnits="userSpaceOnUse">
<stop stop-color="#A94117"/>
<stop offset="0.5" stop-color="#FA9B6B"/>
<stop offset="1" stop-color="#A94117"/>
</linearGradient>
<linearGradient id="paint1_linear_862_10995" x1="77.0001" y1="128.11" x2="77.0001" y2="27.8801" gradientUnits="userSpaceOnUse">
<stop stop-color="#FA9B6B"/>
<stop offset="1" stop-color="#A3380D"/>
</linearGradient>
</defs>
</svg>
