<svg width="156" height="155" viewBox="0 0 156 155" fill="none" xmlns="http://www.w3.org/2000/svg">
<path d="M77.805 46L105.525 62V94L77.805 110L50.085 94V62L77.805 46Z" fill="url(#paint0_linear_862_11031)"/>
<path d="M105.525 62V94L133.245 110V46L105.525 62Z" fill="url(#paint1_linear_862_11031)"/>
<path d="M105.525 94L77.8052 110L105.525 126L133.245 110L105.525 94Z" fill="url(#paint2_linear_862_11031)"/>
<path d="M22.375 46V110L50.095 94V62L22.375 46Z" fill="url(#paint3_linear_862_11031)"/>
<path d="M50.095 30L22.375 46L50.095 62L77.805 46L50.095 30Z" fill="url(#paint4_linear_862_11031)"/>
<path d="M105.525 30L77.8052 46L105.525 62L133.245 46L105.525 30Z" fill="url(#paint5_linear_862_11031)"/>
<path d="M77.8052 110.01L50.0952 126L77.8052 142L105.525 126L77.8052 110V110.01Z" fill="url(#paint6_linear_862_11031)"/>
<path d="M77.8052 45.99L105.525 30L77.8052 14L50.0952 30L77.8052 46V45.99Z" fill="url(#paint7_linear_862_11031)"/>
<path d="M77.805 110L77.785 109.99L50.095 94L22.375 110H22.385L22.375 110.01L50.095 126L77.805 110.01H77.785L77.795 110H77.805Z" fill="url(#paint8_linear_862_11031)"/>
<defs>
<linearGradient id="paint0_linear_862_11031" x1="55.955" y1="99.86" x2="99.665" y2="56.14" gradientUnits="userSpaceOnUse">
<stop stop-color="#00FD8C"/>
<stop offset="0.5" stop-color="#11A841"/>
<stop offset="1" stop-color="#17372A"/>
</linearGradient>
<linearGradient id="paint1_linear_862_11031" x1="108.455" y1="96.93" x2="146.315" y2="59.07" gradientUnits="userSpaceOnUse">
<stop stop-color="#00FD8C"/>
<stop offset="0.5" stop-color="#11A841"/>
<stop offset="1" stop-color="#17372A"/>
</linearGradient>
<linearGradient id="paint2_linear_862_11031" x1="91.6652" y1="123.86" x2="119.385" y2="96.14" gradientUnits="userSpaceOnUse">
<stop stop-color="#00FD8C"/>
<stop offset="0.5" stop-color="#11A841"/>
<stop offset="1" stop-color="#17372A"/>
</linearGradient>
<linearGradient id="paint3_linear_862_11031" x1="9.305" y1="96.93" x2="47.165" y2="59.07" gradientUnits="userSpaceOnUse">
<stop stop-color="#00FD8C"/>
<stop offset="0.5" stop-color="#11A841"/>
<stop offset="1" stop-color="#17372A"/>
</linearGradient>
<linearGradient id="paint4_linear_862_11031" x1="36.235" y1="59.86" x2="63.955" y2="32.14" gradientUnits="userSpaceOnUse">
<stop stop-color="#00FD8C"/>
<stop offset="0.5" stop-color="#11A841"/>
<stop offset="1" stop-color="#17372A"/>
</linearGradient>
<linearGradient id="paint5_linear_862_11031" x1="91.6652" y1="59.86" x2="119.385" y2="32.14" gradientUnits="userSpaceOnUse">
<stop stop-color="#00FD8C"/>
<stop offset="0.5" stop-color="#11A841"/>
<stop offset="1" stop-color="#17372A"/>
</linearGradient>
<linearGradient id="paint6_linear_862_11031" x1="63.9452" y1="139.86" x2="91.6652" y2="112.14" gradientUnits="userSpaceOnUse">
<stop stop-color="#00FD8C"/>
<stop offset="0.5" stop-color="#11A841"/>
<stop offset="1" stop-color="#17372A"/>
</linearGradient>
<linearGradient id="paint7_linear_862_11031" x1="63.9452" y1="43.86" x2="91.6652" y2="16.14" gradientUnits="userSpaceOnUse">
<stop stop-color="#00FD8C"/>
<stop offset="0.5" stop-color="#11A841"/>
<stop offset="1" stop-color="#17372A"/>
</linearGradient>
<linearGradient id="paint8_linear_862_11031" x1="36.235" y1="123.86" x2="63.955" y2="96.14" gradientUnits="userSpaceOnUse">
<stop stop-color="#00FD8C"/>
<stop offset="0.5" stop-color="#11A841"/>
<stop offset="1" stop-color="#17372A"/>
</linearGradient>
</defs>
</svg>
