<svg width="156" height="155" viewBox="0 0 156 155" fill="none" xmlns="http://www.w3.org/2000/svg">
<path d="M77.8816 12.9998L13.8813 77L77.8816 141L141.882 77L77.8816 12.9998Z" fill="url(#paint0_linear_862_11015)"/>
<path d="M77.875 13V77H141.875L77.875 13Z" fill="url(#paint1_linear_862_11015)"/>
<path d="M13.875 77H77.875V13L13.875 77Z" fill="url(#paint2_linear_862_11015)"/>
<path d="M77.875 141V77H13.875L77.875 141Z" fill="url(#paint3_linear_862_11015)"/>
<path d="M141.875 77H77.875V141L141.875 77Z" fill="url(#paint4_linear_862_11015)"/>
<path d="M77.8746 31.8159L32.6904 77L77.8746 122.184L123.059 77L77.8746 31.8159Z" fill="url(#paint5_linear_862_11015)"/>
<defs>
<linearGradient id="paint0_linear_862_11015" x1="45.8779" y1="45.0034" x2="109.871" y2="108.997" gradientUnits="userSpaceOnUse">
<stop stop-color="#F8DF7B"/>
<stop offset="0.27" stop-color="#D6AD51"/>
<stop offset="0.64" stop-color="#BF8311"/>
<stop offset="1" stop-color="#EBC862"/>
</linearGradient>
<linearGradient id="paint1_linear_862_11015" x1="109.875" y1="13" x2="109.875" y2="77" gradientUnits="userSpaceOnUse">
<stop offset="0.2" stop-color="#BF8311"/>
<stop offset="0.8" stop-color="#EAC962"/>
</linearGradient>
<linearGradient id="paint2_linear_862_11015" x1="45.875" y1="13" x2="45.875" y2="77" gradientUnits="userSpaceOnUse">
<stop offset="0.2" stop-color="#BF8311"/>
<stop offset="0.8" stop-color="#EAC962"/>
</linearGradient>
<linearGradient id="paint3_linear_862_11015" x1="45.875" y1="77" x2="45.875" y2="141" gradientUnits="userSpaceOnUse">
<stop offset="0.2" stop-color="#BF8311"/>
<stop offset="0.8" stop-color="#EAC962"/>
</linearGradient>
<linearGradient id="paint4_linear_862_11015" x1="109.875" y1="77" x2="109.875" y2="141" gradientUnits="userSpaceOnUse">
<stop offset="0.2" stop-color="#BF8311"/>
<stop offset="0.8" stop-color="#EAC962"/>
</linearGradient>
<linearGradient id="paint5_linear_862_11015" x1="77.8746" y1="122.184" x2="77.8675" y2="31.823" gradientUnits="userSpaceOnUse">
<stop offset="0.2" stop-color="#EAC962"/>
<stop offset="0.8" stop-color="#BF8311"/>
</linearGradient>
</defs>
</svg>
