<svg width="156" height="155" viewBox="0 0 156 155" fill="none" xmlns="http://www.w3.org/2000/svg">
<path d="M77.75 14V78H112.67L77.75 14Z" fill="url(#paint0_linear_862_11027)"/>
<path d="M42.8398 78H77.7498V14L42.8398 78Z" fill="url(#paint1_linear_862_11027)"/>
<path d="M77.7501 78H42.8301L77.7501 141.99V78Z" fill="url(#paint2_linear_862_11027)"/>
<path d="M112.67 78H77.75V141.99L112.67 78Z" fill="url(#paint3_linear_862_11027)"/>
<path d="M77.75 14L112.67 78H141.75L77.76 14H77.75Z" fill="url(#paint4_linear_862_11027)"/>
<path d="M112.67 78L77.75 141.99L141.75 78H112.67Z" fill="url(#paint5_linear_862_11027)"/>
<path d="M77.75 14L42.83 78H13.75L77.75 14Z" fill="url(#paint6_linear_862_11027)"/>
<path d="M42.84 78L77.75 141.99L13.75 78H42.84Z" fill="url(#paint7_linear_862_11027)"/>
<defs>
<linearGradient id="paint0_linear_862_11027" x1="78.73" y1="74.55" x2="101.66" y2="34.82" gradientUnits="userSpaceOnUse">
<stop stop-color="#00FEFF"/>
<stop offset="0.54" stop-color="#007AFF"/>
<stop offset="1" stop-color="#00449F"/>
</linearGradient>
<linearGradient id="paint1_linear_862_11027" x1="57.2098" y1="81.58" x2="86.5198" y2="30.81" gradientUnits="userSpaceOnUse">
<stop stop-color="#00FEFF"/>
<stop offset="0.54" stop-color="#007AFF"/>
<stop offset="1" stop-color="#00449F"/>
</linearGradient>
<linearGradient id="paint2_linear_862_11027" x1="54.1501" y1="120.64" x2="76.5801" y2="81.79" gradientUnits="userSpaceOnUse">
<stop stop-color="#00FEFF"/>
<stop offset="0.54" stop-color="#007AFF"/>
<stop offset="1" stop-color="#00449F"/>
</linearGradient>
<linearGradient id="paint3_linear_862_11027" x1="68" y1="126.89" x2="98.06" y2="74.81" gradientUnits="userSpaceOnUse">
<stop stop-color="#00FEFF"/>
<stop offset="0.54" stop-color="#007AFF"/>
<stop offset="1" stop-color="#00449F"/>
</linearGradient>
<linearGradient id="paint4_linear_862_11027" x1="98.54" y1="65.43" x2="113.43" y2="39.63" gradientUnits="userSpaceOnUse">
<stop stop-color="#00FEFF"/>
<stop offset="0.54" stop-color="#007AFF"/>
<stop offset="1" stop-color="#00449F"/>
</linearGradient>
<linearGradient id="paint5_linear_862_11027" x1="93.41" y1="136.55" x2="128.09" y2="76.47" gradientUnits="userSpaceOnUse">
<stop stop-color="#00FEFF"/>
<stop offset="0.54" stop-color="#007AFF"/>
<stop offset="1" stop-color="#00449F"/>
</linearGradient>
<linearGradient id="paint6_linear_862_11027" x1="27.81" y1="78.84" x2="61.15" y2="21.09" gradientUnits="userSpaceOnUse">
<stop stop-color="#00FEFF"/>
<stop offset="0.54" stop-color="#007AFF"/>
<stop offset="1" stop-color="#00449F"/>
</linearGradient>
<linearGradient id="paint7_linear_862_11027" x1="42.64" y1="115.38" x2="56.6" y2="91.2" gradientUnits="userSpaceOnUse">
<stop stop-color="#00FEFF"/>
<stop offset="0.54" stop-color="#007AFF"/>
<stop offset="1" stop-color="#00449F"/>
</linearGradient>
</defs>
</svg>
